<svg xmlns="http://www.w3.org/2000/svg" width="1080" height="1350" viewBox="0 0 1080 1350" role="img" aria-label="Plantilla post 4x5 El Terracampino">
  <rect width="1080" height="1350" fill="#F4EBDD"/>
  <g opacity="0.16" stroke="#251F1A" stroke-width="2">
    <line x1="72" y1="86" x2="1008" y2="86"/><line x1="72" y1="110" x2="1008" y2="110"/><line x1="72" y1="134" x2="1008" y2="134"/><line x1="72" y1="158" x2="1008" y2="158"/><line x1="72" y1="182" x2="1008" y2="182"/><line x1="72" y1="206" x2="1008" y2="206"/><line x1="72" y1="230" x2="1008" y2="230"/><line x1="72" y1="254" x2="1008" y2="254"/><line x1="72" y1="278" x2="1008" y2="278"/><line x1="72" y1="302" x2="1008" y2="302"/><line x1="72" y1="326" x2="1008" y2="326"/><line x1="72" y1="350" x2="1008" y2="350"/><line x1="72" y1="374" x2="1008" y2="374"/><line x1="72" y1="398" x2="1008" y2="398"/><line x1="72" y1="422" x2="1008" y2="422"/><line x1="72" y1="446" x2="1008" y2="446"/><line x1="72" y1="470" x2="1008" y2="470"/><line x1="72" y1="494" x2="1008" y2="494"/><line x1="72" y1="518" x2="1008" y2="518"/><line x1="72" y1="542" x2="1008" y2="542"/><line x1="72" y1="566" x2="1008" y2="566"/><line x1="72" y1="590" x2="1008" y2="590"/><line x1="72" y1="614" x2="1008" y2="614"/><line x1="72" y1="638" x2="1008" y2="638"/><line x1="72" y1="662" x2="1008" y2="662"/><line x1="72" y1="686" x2="1008" y2="686"/><line x1="72" y1="710" x2="1008" y2="710"/><line x1="72" y1="734" x2="1008" y2="734"/><line x1="72" y1="758" x2="1008" y2="758"/><line x1="72" y1="782" x2="1008" y2="782"/><line x1="72" y1="806" x2="1008" y2="806"/><line x1="72" y1="830" x2="1008" y2="830"/><line x1="72" y1="854" x2="1008" y2="854"/><line x1="72" y1="878" x2="1008" y2="878"/><line x1="72" y1="902" x2="1008" y2="902"/><line x1="72" y1="926" x2="1008" y2="926"/><line x1="72" y1="950" x2="1008" y2="950"/><line x1="72" y1="974" x2="1008" y2="974"/><line x1="72" y1="998" x2="1008" y2="998"/><line x1="72" y1="1022" x2="1008" y2="1022"/><line x1="72" y1="1046" x2="1008" y2="1046"/><line x1="72" y1="1070" x2="1008" y2="1070"/><line x1="72" y1="1094" x2="1008" y2="1094"/><line x1="72" y1="1118" x2="1008" y2="1118"/><line x1="72" y1="1142" x2="1008" y2="1142"/><line x1="72" y1="1166" x2="1008" y2="1166"/><line x1="72" y1="1190" x2="1008" y2="1190"/><line x1="72" y1="1214" x2="1008" y2="1214"/><line x1="72" y1="1238" x2="1008" y2="1238"/>
  </g>
  <rect x="72" y="72" width="936" height="1206" fill="none" stroke="#251F1A" stroke-width="3"/>
  <text x="92" y="135" font-family="Courier New, monospace" font-size="32" letter-spacing="4" fill="#2F556D">MUNICIPIO / SECCIÓN</text>
  <text x="92" y="385" font-family="Georgia, serif" font-size="92" font-weight="700" fill="#251F1A">
    <tspan x="92" dy="0">Titular claro</tspan>
    <tspan x="92" dy="104">de una noticia</tspan>
    <tspan x="92" dy="104">local</tspan>
  </text>
  <rect x="92" y="750" width="560" height="6" fill="#A65F2A"/>
  <text x="92" y="850" font-family="Arial, sans-serif" font-size="42" fill="#251F1A">
    <tspan x="92" dy="0">Dato principal o lectura</tspan>
    <tspan x="92" dy="58">práctica en dos líneas.</tspan>
  </text>
  <text x="92" y="1180" font-family="Arial, sans-serif" font-size="24" fill="#2F556D">Fuente: documento oficial / federación / AEMET</text>
  <text x="92" y="1240" font-family="Georgia, serif" font-size="36" font-weight="700" fill="#251F1A">El Terracampino</text>
</svg>